#!OML:ASF F:\VICON\USERDATA\INSTALL\Justin_Nancy\Justin_Nancy.ASF
:FULLY-SPECIFIED
:DEGREES
326
root 0.749208 22.8332 1.55172 6.83007 -4.58035 -2.21901
lowerback 15.7644 0.543874 1.2335
upperback 2.49216 1.13759 3.229
thorax -6.2274 0.555941 2.49557
lowerneck -9.90564 -1.18401 -10.2338
upperneck 23.2705 -0.842785 4.9825
head 8.97922 -0.767053 3.34982
rclavicle -3.77691e-015 -1.19271e-014
rhumerus -30.3169 -21.4018 -72.6125
rradius 32.208
rwrist -5.96526
rhand -20.395 13.5073
rfingers 7.12502
rthumb 5.95843 -16.3889
lclavicle -3.77691e-015 -1.19271e-014
lhumerus -30.3726 17.9195 84.9608
lradius 40.0102
lwrist 18.2685
lhand -27.6434 27.4422
lfingers 7.12502
lthumb -1.04152 57.4194
rfemur -35.8373 -13.7442 22.325
rtibia 94.6025
rfoot 12.8234 1.19208
rtoes 18.7495
lfemur -36.1265 12.8823 -20.6923
ltibia 85.2886
lfoot 6.80323 -10.0324
ltoes -7.26598
327
root 0.750485 22.8567 1.82672 6.78307 -4.72652 -1.9599
lowerback 16.4004 0.551944 0.963356
upperback 2.79597 1.09781 3.06746
thorax -6.25039 0.538654 2.48329
lowerneck -9.93023 -1.12842 -10.1884
upperneck 22.9572 -0.770924 4.99655
head 8.86868 -0.720956 3.34786
rclavicle -1.63003e-014 -1.03368e-014
rhumerus -32.4017 -22.3902 -71.6164
rradius 32.2609
rwrist -4.6836
rhand -21.7987 8.77504
rfingers 7.12502
rthumb 4.60318 -21.1549
lclavicle -1.63003e-014 -1.03368e-014
lhumerus -32.4407 19.6742 83.4534
lradius 40.5807
lwrist 19.621
lhand -27.7369 27.0904
lfingers 7.12502
lthumb -1.13181 57.0672
rfemur -37.5131 -13.5435 22.4863
rtibia 94.0091
rfoot 12.5281 1.61362
rtoes 17.8672
lfemur -37.35 12.5457 -21.2189
ltibia 83.9622
lfoot 5.84223 -10.1487
ltoes -8.34815
328
root 0.750395 22.8353 2.08903 6.86913 -4.98052 -1.77305
lowerback 17.033 0.630917 0.670984
upperback 3.03576 1.14835 2.94337
thorax -6.34269 0.566214 2.50445
lowerneck -9.97009 -1.14454 -10.1564
upperneck 22.6586 -0.790113 4.99148
head 8.77474 -0.72076 3.33259
rclavicle -4.96962e-015 2.8625e-014
rhumerus -34.1889 -23.7797 -70.1708
rradius 31.1871
rwrist -2.36653
rhand -21.4197 7.36509
rfingers 7.12502
rthumb 4.96909 -22.5566
lclavicle -4.96962e-015 2.8625e-014
lhumerus -34.425 21.2426 81.8444
lradius 40.7149
lwrist 20.5424
lhand -27.4661 24.5245
lfingers 7.12502
lthumb -0.87029 54.5024
rfemur -39.366 -13.0351 22.7247
rtibia 93.2737
rfoot 12.0709 2.13174
rtoes 17.5209
lfemur -38.7031 12.2107 -21.6077
ltibia 82.3705
lfoot 5.31758 -10.2348
ltoes -7.99478
329
root 0.744857 22.7937 2.36019 6.98476 -5.21138 -1.6473
lowerback 17.479 0.684857 0.289557
upperback 3.26362 1.14836 2.90032
thorax -6.34637 0.571316 2.67446
lowerneck -9.78496 -1.11973 -10.165
upperneck 22.3524 -0.770583 4.99023
head 8.63383 -0.707673 3.32853
rclavicle 1.07344e-014 1.03368e-014
rhumerus -35.9846 -24.952 -68.4934
rradius 29.8004
rwrist 0.578237
rhand -20.1818 6.84709
rfingers 7.12502
rthumb 6.16432 -23.0432
lclavicle 1.07344e-014 1.03368e-014
lhumerus -36.2238 22.661 80.1833
lradius 40.4794
lwrist 21.2962
lhand -27.4703 23.226
lfingers 7.12502
lthumb -0.87431 53.204
rfemur -40.9888 -12.3918 22.9766
rtibia 92.2444
rfoot 10.7333 2.51136
rtoes 17.1999
lfemur -39.9413 11.7631 -21.7871
ltibia 80.471
lfoot 5.18657 -10.355
ltoes -5.89732
330
root 0.739535 22.764 2.6483 7.12154 -5.35547 -1.56343
lowerback 17.6966 0.716714 0.00245936
upperback 3.52917 1.13107 2.87932
thorax -6.18304 0.564762 2.81856
lowerneck -9.79147 -1.17057 -10.0007
upperneck 22.1912 -0.81132 4.7318
head 8.5837 -0.735332 3.20469
rclavicle -1.03368e-014 1.03368e-014
rhumerus -37.7412 -25.6552 -66.8332
rradius 28.4169
rwrist 3.53501
rhand -18.723 6.18466
rfingers 7.12502
rthumb 7.57252 -23.6598
lclavicle -1.03368e-014 1.03368e-014
lhumerus -37.7228 23.4885 78.7755
lradius 40.4021
lwrist 22.4597
lhand -28.5566 26.3417
lfingers 7.12502
lthumb -1.9235 56.3128
rfemur -42.2069 -11.7162 23.0935
rtibia 90.8841
rfoot 9.26937 2.86964
rtoes 16.9249
lfemur -40.8938 11.1311 -21.8348
ltibia 78.1836
lfoot 4.62388 -10.3369
ltoes -5.56313
331
root 0.738639 22.7128 2.93715 7.35768 -5.43573 -1.51195
lowerback 17.8229 0.692224 -0.185613
upperback 3.73872 1.05963 2.87919
thorax -6.02577 0.530047 2.94131
lowerneck -10.0245 -1.33562 -9.92031
upperneck 22.2766 -0.957458 4.40483
head 8.66955 -0.829724 3.06607
rclavicle -1.61016e-014 -1.82882e-014
rhumerus -39.3151 -26.0328 -65.1919
rradius 26.7072
rwrist 6.55375
rhand -17.4385 5.87697
rfingers 7.12502
rthumb 8.81223 -23.919
lclavicle -1.61016e-014 -1.82882e-014
lhumerus -39.3527 24.62 77.0326
lradius 39.6755
lwrist 22.1148
lhand -28.1173 25.471
lfingers 7.12502
lthumb -1.49917 55.4455
rfemur -43.6929 -11.1075 23.3603
rtibia 89.0508
rfoot 8.82458 3.00965
rtoes 15.4612
lfemur -41.8238 10.4564 -21.846
ltibia 75.6959
lfoot 3.59759 -10.2447
ltoes -7.804
332
root 0.739499 22.619 3.22348 7.56987 -5.58523 -1.64212
lowerback 18.0161 0.690584 -0.171406
upperback 3.95366 1.05837 2.9201
thorax -5.89939 0.526054 2.97671
lowerneck -10.5067 -1.44529 -9.92578
upperneck 22.5753 -1.00486 4.16993
head 8.86737 -0.878897 2.98712
rclavicle 5.96354e-015 8.74653e-015
rhumerus -40.7326 -26.2553 -63.586
rradius 24.7814
rwrist 9.58191
rhand -16.5961 6.63687
rfingers 7.12502
rthumb 9.62504 -23.1232
lclavicle 5.96354e-015 8.74653e-015
lhumerus -41.106 25.5658 75.2421
lradius 38.9197
lwrist 21.1856
lhand -27.3443 23.9935
lfingers 7.12502
lthumb -0.752623 53.9719
rfemur -44.9953 -10.294 23.664
rtibia 87.2567
rfoot 8.26872 2.81623
rtoes 15.0328
lfemur -42.679 9.90449 -21.5947
ltibia 73.1443
lfoot 2.98164 -9.9912
ltoes -8.90312
